<svg width="564" height="648" viewBox="0 0 564 648" fill="none" xmlns="http://www.w3.org/2000/svg">
<path d="M246.071 182.277C240.152 175.362 231.787 172.811 227.387 176.578C222.987 180.345 224.218 189.003 230.14 195.92C232.467 198.715 235.43 200.913 238.781 202.328L264.228 231.31L277.574 219.079L251.071 191.806C250.189 188.276 248.475 185.008 246.071 182.277V182.277Z" fill="#FFB6B6"/>
<path d="M437.07 217.619C437.07 217.619 442.636 243.095 420.545 251.219C398.454 259.342 341.208 290.533 336.97 289.104C332.733 287.674 318.869 294.652 302.507 279.766C286.145 264.88 246.615 220 246.615 220L262.875 197.917L324.094 240.208C324.094 240.208 325.403 239.819 331.206 239.217C337.009 238.616 332.471 242.277 341.548 234.955C350.625 227.634 408.561 201.395 408.561 201.395C408.561 201.395 425.562 192.971 437.07 217.619H437.07Z" fill="#2F2E41"/>
<path d="M105.784 475.202C104.94 473.779 101.287 475.303 100.616 474.011C99.9465 472.723 103.34 470.762 105.279 466.281C105.629 465.473 107.832 460.381 106.201 458.809C103.109 455.831 88.9612 468.122 84.0101 464.1C82.9235 463.217 82.1644 461.455 78.8759 458.594C77.5676 457.456 76.7765 456.942 76.0109 457.133C74.9245 457.404 74.8385 458.858 73.6735 461.717C71.9265 466.004 70.8933 465.746 69.8754 469.166C69.1198 471.705 69.2924 473.182 68.4032 473.469C67.145 473.876 65.9868 471.183 64.3922 471.424C62.765 471.67 61.7813 474.806 61.4705 477.154C60.8874 481.56 62.5055 484.468 63.4023 487.525C64.377 490.847 64.9554 495.9 62.7047 503.052L40.4275 565.818C45.3456 552.939 59.5859 517.633 65.5696 504.513C67.2971 500.726 69.2043 496.884 73.1206 495.368C76.8911 493.908 82.0693 494.78 88.6709 493.189C89.4419 493.004 91.5814 492.459 91.8507 491.201C92.0734 490.16 90.8149 489.58 91.0082 488.605C91.2676 487.298 93.7424 487.282 96.7836 485.774C98.928 484.711 100.264 483.446 101.413 482.359C101.759 482.031 106.908 477.097 105.784 475.202H105.784V475.202Z" fill="#F2F2F2"/>
<path d="M18.1389 508.245C17.1965 508.248 16.8908 510.481 16.063 510.438C15.238 510.395 15.2545 508.163 13.6147 505.919C13.3189 505.514 11.4554 502.963 10.2135 503.31C7.85965 503.968 9.81 514.459 6.40732 515.728C5.66059 516.007 4.57667 515.871 2.22364 516.66C1.28754 516.973 0.807076 517.213 0.679996 517.644C0.499696 518.256 1.18844 518.717 2.25543 520.114C3.85559 522.208 3.43039 522.641 4.81552 524.127C5.84378 525.231 6.61817 525.572 6.50276 526.092C6.33949 526.827 4.68342 526.618 4.34169 527.47C3.993 528.34 5.24827 529.727 6.31098 530.557C8.30527 532.115 10.1991 532.159 11.9584 532.601C13.8702 533.082 16.5169 534.256 19.3781 537.424L43.7565 566.468C38.8542 560.338 25.6346 543.162 20.9217 536.439C19.5612 534.499 18.2261 532.454 18.6119 530.095C18.9833 527.823 20.9052 525.533 22.0294 521.834C22.1607 521.402 22.5108 520.195 21.9709 519.699C21.5245 519.29 20.8764 519.74 20.4539 519.364C19.8873 518.86 20.5935 517.64 20.7308 515.713C20.8277 514.353 20.5925 513.333 20.3903 512.455C20.3293 512.191 19.3933 508.24 18.1389 508.245V508.245H18.1389Z" fill="#F2F2F2"/>
<path d="M36.9385 512.465L36.3708 507.397L36.6302 507.013C37.8305 505.236 38.4423 503.501 38.4497 501.854C38.4509 501.592 38.4386 501.33 38.4264 501.063C38.3774 500.006 38.3163 498.692 39.0015 497.16C39.3857 496.306 40.4649 494.329 42.0874 494.573C42.5243 494.635 42.8546 494.835 43.1055 495.07C43.1422 495.011 43.1801 494.953 43.2205 494.889C43.7258 494.118 44.126 493.788 44.5114 493.47C44.8075 493.225 45.1134 492.973 45.5931 492.376C45.8035 492.114 45.9675 491.884 46.1058 491.691C46.5255 491.106 47.0736 490.408 48.0403 490.42C49.073 490.469 49.6138 491.323 49.9723 491.889C50.6123 492.897 50.9023 493.624 51.0944 494.106C51.1641 494.282 51.2437 494.48 51.284 494.542C51.6169 495.031 54.3223 494.573 55.3415 494.407C57.6309 494.025 59.6119 493.695 60.4281 495.139C61.013 496.171 60.5786 497.537 59.098 499.306C58.6367 499.857 58.146 500.275 57.7104 500.603C58.0714 500.819 58.3944 501.149 58.5254 501.668C58.8337 502.896 57.7777 504.127 55.388 505.331C54.7946 505.632 53.9956 506.034 52.876 506.227C52.3486 506.318 51.8738 506.34 51.4676 506.352C51.459 506.587 51.404 506.841 51.2608 507.103C50.8411 507.874 49.9675 508.241 48.6509 508.153C47.2021 508.077 46.0091 507.801 44.9568 507.558C44.0379 507.348 43.2462 507.169 42.6246 507.211C41.472 507.304 40.5836 508.226 39.5412 509.423L36.9386 512.465H36.9385H36.9385Z" fill="#F2F2F2"/>
<path d="M39.5722 482.289L34.8138 484.124L34.3763 483.97C32.3533 483.26 30.5198 483.108 28.9248 483.519C28.6712 483.584 28.421 483.662 28.1661 483.742C27.1559 484.057 25.9003 484.45 24.2446 484.176C23.321 484.021 21.1346 483.478 20.9598 481.847C20.9082 481.409 21.0185 481.038 21.1821 480.736C21.116 480.715 21.0495 480.694 20.9777 480.671C20.1039 480.377 19.6828 480.074 19.2773 479.782C18.9655 479.558 18.6441 479.326 17.9448 479.013C17.6382 478.876 17.3741 478.776 17.152 478.691C16.4798 478.433 15.6661 478.08 15.4327 477.142C15.2181 476.131 15.9071 475.391 16.363 474.901C17.1759 474.026 17.8054 473.561 18.223 473.253C18.3758 473.141 18.5473 473.013 18.5963 472.959C18.9853 472.513 17.8564 470.012 17.4369 469.068C16.487 466.951 15.6649 465.118 16.8545 463.962C17.7051 463.135 19.1362 463.209 21.2232 464.192C21.8728 464.499 22.4021 464.867 22.8298 465.205C22.9465 464.801 23.1842 464.405 23.6528 464.147C24.7629 463.537 26.2214 464.246 27.9923 466.252C28.4339 466.75 29.0249 467.421 29.4958 468.455C29.7172 468.942 29.8589 469.396 29.9738 469.786C30.2032 469.734 30.4634 469.723 30.753 469.795C31.6051 470.006 32.1818 470.758 32.4305 472.053C32.7246 473.474 32.7597 474.698 32.7923 475.778C32.8218 476.72 32.8498 477.531 33.0477 478.122C33.43 479.213 34.5478 479.838 35.9698 480.543L39.5723 482.289H39.5722V482.289Z" fill="#F2F2F2"/>
<path d="M36.9385 467.358L36.3708 462.29L36.6302 461.906C37.8305 460.129 38.4423 458.394 38.4497 456.747C38.4509 456.485 38.4386 456.223 38.4264 455.956C38.3774 454.899 38.3163 453.585 39.0015 452.053C39.3857 451.199 40.4649 449.222 42.0874 449.466C42.5243 449.528 42.8546 449.728 43.1055 449.963C43.1422 449.905 43.1801 449.846 43.2205 449.782C43.7258 449.011 44.126 448.681 44.5114 448.363C44.8075 448.118 45.1134 447.866 45.5931 447.269C45.8035 447.007 45.9675 446.777 46.1058 446.584C46.5255 445.999 47.0736 445.301 48.0403 445.314C49.073 445.362 49.6138 446.217 49.9723 446.782C50.6123 447.79 50.9023 448.517 51.0944 448.999C51.1641 449.175 51.2437 449.373 51.284 449.435C51.6169 449.924 54.3223 449.466 55.3415 449.3C57.6309 448.918 59.6119 448.588 60.4281 450.032C61.013 451.064 60.5786 452.43 59.098 454.199C58.6367 454.75 58.146 455.168 57.7104 455.496C58.0714 455.712 58.3944 456.042 58.5254 456.561C58.8337 457.789 57.7777 459.02 55.388 460.224C54.7946 460.525 53.9956 460.927 52.876 461.12C52.3486 461.211 51.8738 461.233 51.4676 461.245C51.459 461.48 51.404 461.734 51.2608 461.996C50.8411 462.767 49.9675 463.134 48.6509 463.046C47.2021 462.97 46.0091 462.694 44.9568 462.451C44.0379 462.241 43.2462 462.062 42.6246 462.104C41.472 462.197 40.5836 463.119 39.5412 464.316L36.9386 467.358H36.9385H36.9385Z" fill="#F2F2F2"/>
<path d="M42.1242 565.736L41.062 565.07L40.8051 563.844L41.062 565.07L39.8238 565.212C39.8042 565.097 39.7369 564.833 39.6354 564.419C39.0811 562.153 37.3913 555.257 35.9817 544.396C34.9979 536.815 34.4411 529.02 34.3261 521.226C34.2111 513.419 34.5806 507.509 34.8767 502.759C35.1006 499.177 35.3723 495.765 35.639 492.442C36.3487 483.563 37.018 475.177 36.52 465.892C36.4099 463.819 36.1786 459.505 33.658 454.914C32.1958 452.251 30.1818 449.887 27.6709 447.891L29.2322 445.928C32.0037 448.135 34.2319 450.754 35.8556 453.71C38.6503 458.8 38.9024 463.501 39.0235 465.76C39.5301 475.209 38.8535 483.676 38.1364 492.64C37.8721 495.951 37.6005 499.348 37.3778 502.916C37.0841 507.622 36.7182 513.481 36.832 521.187C36.9446 528.888 37.4952 536.587 38.4656 544.073C39.858 554.797 41.5234 561.59 42.0703 563.822C42.3615 565.014 42.4227 565.264 42.1241 565.736V565.736H42.1242Z" fill="#F2F2F2"/>
<path d="M23.0751 451.872C22.9723 451.872 22.8683 451.87 22.763 451.862C20.6291 451.747 18.653 450.47 16.8885 448.067C16.0614 446.936 15.638 445.646 14.7937 443.074C14.6628 442.678 14.0265 440.666 13.6398 437.899C13.3865 436.09 13.4184 435.334 13.7769 434.666C14.1746 433.922 14.8182 433.403 15.5425 433.053C15.5107 432.813 15.5364 432.566 15.6405 432.314C16.0675 431.269 17.203 431.406 17.8172 431.472C18.128 431.511 18.5159 431.563 18.9344 431.541C19.5927 431.509 19.9463 431.313 20.4823 431.019C20.995 430.738 21.6324 430.388 22.5783 430.195C24.4431 429.806 26.0056 430.334 26.5207 430.508C29.231 431.411 30.5672 433.518 32.1138 435.958C32.4222 436.447 33.4806 438.229 34.1792 440.671C34.6834 442.433 34.6124 443.216 34.4607 443.799C34.1523 444.995 33.4243 445.681 31.5754 447.193C29.6446 448.776 28.6755 449.569 27.8434 450.051C25.9065 451.17 24.6902 451.872 23.0751 451.872V451.872H23.0751Z" fill="#F2F2F2"/>
<path d="M292.615 573L301.615 602L276.615 619L258.615 603C258.615 603 265.615 578 262.615 572L292.615 573Z" fill="#FFB6B6"/>
<path d="M419.615 162L433.954 193.63L392.001 219.709L389.615 182L419.615 162Z" fill="#FFB6B6"/>
<path opacity="0.1" d="M419.615 162L433.954 193.63L392.001 219.709L389.615 182L419.615 162Z" fill="black"/>
<path d="M552.84 270.189C538.857 262.139 525.558 274.996 513.165 315.624C513.165 315.624 460.82 389.761 460.803 420.698H311.058L277.932 467.685L275.387 468.092C275.387 468.092 291.998 472.062 318.07 476.436V632.628H327.012V477.89C334.818 479.119 343.295 480.348 352.29 481.502V632.628H361.232V482.6C386.269 485.546 414.68 487.765 443.5 487.765C445.338 487.765 447.116 487.729 448.866 487.678V632.628H457.808V487.175C472.239 485.939 483.311 482.825 491.788 478.652V632.628H500.73V473.223C523.437 456.268 518.615 430.535 518.615 430.535C511.79 389.587 544.55 327.806 560.448 300.841C566.685 290.263 563.482 276.316 552.84 270.189V270.189Z" fill="#CCCCCC"/>
<path d="M403.127 190.198C419.952 190.198 433.591 176.559 433.591 159.734C433.591 142.909 419.952 129.269 403.127 129.269C386.302 129.269 372.663 142.909 372.663 159.734C372.663 176.559 386.302 190.198 403.127 190.198Z" fill="#FFB6B6"/>
<path d="M391.615 213L434.615 184L427.615 429C427.615 429 392.115 367.5 365.115 364.5C365.115 364.5 368.115 357.5 370.115 353.5C372.115 349.5 375.115 329.5 375.115 329.5L389.115 221.5L391.615 213Z" fill="#3882F6"/>
<path d="M426.115 466.5L388.115 332.5C388.115 332.5 394.115 224.5 434.615 184L444.115 198.5C444.115 198.5 453.509 199.894 451.812 206.197C450.115 212.5 489.115 444.5 489.115 444.5H448.694C448.694 444.5 445.115 466.5 426.115 466.5Z" fill="#2F2E41"/>
<path d="M391.615 213V209C391.615 209 373.115 210.5 372.115 221.5C371.115 232.5 363.115 275.5 371.115 301.5L361.115 317.5L354.115 355.5L376.115 361.5L388.115 269.22C388.115 269.22 396.115 220.5 391.615 213V213Z" fill="#2F2E41"/>
<path d="M427.115 403.5C427.115 403.5 444.115 452.5 408.115 453.5C372.115 454.5 316.032 454.5 316.032 454.5L288.115 469.5L296.115 578.5L240.115 579.5C240.115 579.5 222.115 445.5 238.115 429.5C254.115 413.5 300.115 396.5 300.115 396.5L353.115 369.5L368.021 351.406L427.115 403.5Z" fill="#2F2E41"/>
<path d="M429.155 177.5C431.28 176.745 451.165 153.44 434.615 138C434.615 138 428.166 119.139 402.448 121.117C376.729 123.095 369.805 137.162 369.805 144.472C369.805 151.782 376.615 160 376.615 160C376.615 160 371.783 139.911 382.664 140.901C393.545 141.89 390.578 145.846 398.491 143.868C406.404 141.89 414.318 144.857 414.318 144.857L422.231 147.825V159.894C422.231 159.894 425.682 157.125 425.935 159.894C426.188 162.662 429.155 177.5 429.155 177.5V177.5Z" fill="#2F2E41"/>
<path d="M257.115 424.5L256.115 455.5L217.115 448.5C217.115 448.5 233.861 420.941 231.488 413.22L257.115 424.5Z" fill="#FFB6B6"/>
<path d="M253.115 448.5C253.115 448.5 260.115 448.5 260.115 452.5C260.115 456.5 271.115 487.5 250.115 488.5C229.115 489.5 230.115 485.5 230.115 485.5C230.115 485.5 171.115 512.5 150.115 472.5C150.115 472.5 145.115 462.5 157.115 460.5C169.115 458.5 217.115 441.756 217.115 441.756C217.115 441.756 245.115 452.5 253.115 448.5Z" fill="#2F2E41"/>
<path d="M293.615 602C293.615 602 300.615 593.52 301.615 594.26C302.615 595 324.615 620 309.615 627C294.615 634 286.615 637 286.615 637L282.615 631C282.615 631 252.615 660 206.615 640C206.615 640 202.615 631 211.615 629C220.615 627 258.615 596.528 258.615 596.528C258.615 596.528 274.615 608 282.615 606C290.615 604 293.615 602 293.615 602Z" fill="#2F2E41"/>
<path d="M365.115 361.5C365.115 361.5 271.615 314 263.615 314C255.615 314 240.324 317.291 236.969 332.646C233.615 348 213.615 422 213.615 422L262.615 434L281.615 381L312.615 409L365.115 377.693V361.5Z" fill="#2F2E41"/>
<path d="M321.088 343.15C312.083 344.472 305.465 350.19 306.307 355.921C307.149 361.652 315.132 365.225 324.14 363.901C327.746 363.422 331.184 362.086 334.168 360.006L372.254 353.923L369.018 336.112L331.816 343.999C328.359 342.863 324.681 342.572 321.088 343.15H321.088Z" fill="#FFB6B6"/>
<path d="M452.799 200.384C452.799 200.384 477.321 209.254 472.419 232.275C467.517 255.296 463.394 320.358 459.926 323.181C456.458 326.005 454.972 341.454 433.656 347.363C412.339 353.273 351.168 379.429 351.168 379.429L343.278 337.269L411.691 308.013C411.691 308.013 412.061 306.698 414.645 301.468C417.229 296.237 417.907 302.028 416.551 290.446C415.195 278.863 423.875 215.858 423.875 215.858C423.875 215.858 425.809 196.983 452.799 200.384L452.799 200.384Z" fill="#2F2E41"/>
<path d="M231.367 13.936C231.243 14.0561 231.129 14.1824 231.007 14.3034C211.936 -4.62116 181.222 -4.78765 161.947 13.9289C142.604 32.7192 141.95 63.5657 160.48 83.1587L160.468 83.1704L160.93 83.6455L229.167 153.905L299.902 85.2056L299.705 85.0031C299.824 84.8899 299.947 84.7849 300.065 84.6702C319.598 65.6995 320.054 34.4864 301.083 14.9536C282.112 -4.57908 250.899 -5.03466 231.367 13.936L231.367 13.936Z" fill="#3882F6"/>
</svg>
